<svg xmlns="http://www.w3.org/2000/svg" xmlns:xlink="http://www.w3.org/1999/xlink" viewBox="0 0 268.53 85.91"><defs><style>.cls-1{fill:none;}.cls-2{fill:url(#Dégradé_sans_nom_22);}.cls-3{fill:url(#Dégradé_sans_nom_22-2);}.cls-4{fill:url(#Dégradé_sans_nom_22-3);}.cls-5{fill:url(#Dégradé_sans_nom_22-4);}.cls-6{fill:url(#rose_80_s_5);}.cls-7{fill:url(#rose_80_s_5-2);}.cls-8{clip-path:url(#clip-path);}.cls-9{fill:#5a5a5a;}.cls-10{fill:url(#Dégradé_sans_nom_22-7);}</style><linearGradient id="Dégradé_sans_nom_22" x1="-11.02" y1="-3.68" x2="19.49" y2="-3.68" gradientTransform="translate(11.01 31.48) rotate(-2.76)" gradientUnits="userSpaceOnUse"><stop offset="0" stop-color="#592de6"/><stop offset="1" stop-color="#8303e8"/></linearGradient><linearGradient id="Dégradé_sans_nom_22-2" x1="18.08" y1="-5.8" x2="53.28" y2="-5.8" xlink:href="#Dégradé_sans_nom_22"/><linearGradient id="Dégradé_sans_nom_22-3" x1="42.92" y1="-8.99" x2="78.12" y2="-8.99" xlink:href="#Dégradé_sans_nom_22"/><linearGradient id="Dégradé_sans_nom_22-4" x1="78.12" y1="-7.32" x2="-11.02" y2="-7.32" xlink:href="#Dégradé_sans_nom_22"/><linearGradient id="rose_80_s_5" x1="109.29" y1="63.18" x2="154.76" y2="63.18" gradientUnits="userSpaceOnUse"><stop offset="0" stop-color="#f65a01"/><stop offset="1" stop-color="#cc1500"/></linearGradient><linearGradient id="rose_80_s_5-2" x1="38.69" y1="63.15" x2="268.53" y2="63.15" xlink:href="#rose_80_s_5"/><clipPath id="clip-path"><circle class="cls-1" cx="132.02" cy="63.18" r="22.74"/></clipPath><linearGradient id="Dégradé_sans_nom_22-7" x1="109.29" y1="63.18" x2="154.76" y2="63.18" gradientTransform="matrix(1, 0, 0, 1, 0, 0)" xlink:href="#Dégradé_sans_nom_22"/></defs><g id="Calque_2" data-name="Calque 2"><g id="Calque_1-2" data-name="Calque 1"><path class="cls-2" d="M21.56,10.25l.19,0Q23.57,9.9,26,13.05l.22.16.16.86c.09.55-.74,1.18-2.5,1.9l0,.17q5.15,4.48,6,9l.15.88q2,11.3-7.15,16.26a23.19,23.19,0,0,1-5.34,1.85l-2,.36Q7,46,1.69,38c-.37,0-.8-1-1.29-3L.18,33.72q-1.5-8.47,9.56-17.57Q16.85,11.08,21.56,10.25ZM7.26,34.09l0,.18q.54,3,4.47,2.8l1.47-.26Q19.17,35.76,23,28a16.65,16.65,0,0,0,.25-4.93,8.39,8.39,0,0,0-1.06-2.88l.08-.54c-.65-1.7-1.05-2.54-1.2-2.51Q15.84,18.86,9.87,26.4,6.68,30.84,7.26,34.09Z"/><path class="cls-3" d="M57.73,4.39c0,.19.5.35,1.41.49.08.45.43.69,1,.74l0,.19-.14.2,0,.19c.47-.08.73,0,.77.24l-.14.2c.57-.1,1.4.38,2.48,1.43q.14.73-18,5.8-1.83.33-1.83,3.3c-.16,0-.35,1-.59,2.9L43,20l4.63-1.18c.68.61,1.16.9,1.45.84l.17.92.46.47,0,.17-.54.1,0,.19.17,0,1-.39,1.15.17,0,.19-.16.21,0,.19c.75,0,1.15.14,1.18.34q-1.86,2.13-12,6Q36.86,41,36.06,42.71c-1,.18-1.42.44-1.36.8l-.17,0-.62-.27.16-.2-.13-.73-.36.07q.11.53-.27.6c-.23-.58-.59-.82-1.07-.74l0,.17c0,.63-.09,1-.37,1l-.21-.16-.19,0-.3.43L30.32,43a.49.49,0,0,1-.63-.46q-.59-3.24,3.08-15.08,3.49-11.81,2.76-15.95c.65-1.86,1.4-2.86,2.26-3l3,.21A137,137,0,0,1,57.73,4.39Z"/><path class="cls-4" d="M82.39,0c0,.19.5.36,1.41.5.07.44.43.69,1,.74l0,.19-.15.2,0,.19c.47-.08.73,0,.77.24l-.14.2c.57-.1,1.4.37,2.48,1.43q.12.72-18,5.79c-1.22.22-1.83,1.32-1.84,3.3-.15,0-.34,1-.58,2.9l.17,0,4.63-1.18c.68.62,1.16.9,1.45.85l.16.91.46.47,0,.18-.53.09,0,.19.17,0,1.06-.38,1.15.17,0,.19-.16.2,0,.19c.75,0,1.14.14,1.18.34q-1.86,2.13-12,6.05-3.9,12.72-4.69,14.44c-1,.17-1.42.43-1.36.79l-.17,0-.62-.26.16-.21L58.6,38l-.36.06q.09.54-.27.6c-.23-.58-.59-.82-1.07-.73l0,.17c0,.62-.1,1-.37,1l-.21-.16-.19,0-.3.43L55,38.6a.49.49,0,0,1-.64-.46q-.57-3.24,3.09-15.08,3.49-11.79,2.76-15.94c.65-1.86,1.4-2.87,2.25-3l3,.21A137.74,137.74,0,0,1,82.39,0Z"/><path class="cls-5" d="M21.56,10.25l.19,0Q23.57,9.9,26,13.05l.22.16.16.86c.09.55-.74,1.18-2.5,1.9l0,.17q5.15,4.48,6,9l.15.88q2,11.3-7.15,16.26a23.19,23.19,0,0,1-5.34,1.85l-2,.36Q7,46,1.69,38c-.37,0-.8-1-1.29-3L.18,33.72q-1.5-8.47,9.56-17.57Q16.85,11.08,21.56,10.25ZM7.26,34.09l0,.18q.54,3,4.47,2.8l1.47-.26Q19.17,35.76,23,28a16.65,16.65,0,0,0,.25-4.93,8.39,8.39,0,0,0-1.06-2.88l.08-.54c-.65-1.7-1.05-2.54-1.2-2.51Q15.84,18.86,9.87,26.4,6.68,30.84,7.26,34.09Z"/><path class="cls-5" d="M57.73,4.39c0,.19.5.35,1.41.49.08.45.43.69,1,.74l0,.19-.14.2,0,.19c.47-.08.73,0,.77.24l-.14.2c.57-.1,1.4.38,2.48,1.43q.14.73-18,5.8-1.83.33-1.83,3.3c-.16,0-.35,1-.59,2.9L43,20l4.63-1.18c.68.61,1.16.9,1.45.84l.17.92.46.47,0,.17-.54.1,0,.19.17,0,1-.39,1.15.17,0,.19-.16.21,0,.19c.75,0,1.15.14,1.18.34q-1.86,2.13-12,6Q36.86,41,36.06,42.71c-1,.18-1.42.44-1.36.8l-.17,0-.62-.27.16-.2-.13-.73-.36.07q.11.53-.27.6c-.23-.58-.59-.82-1.07-.74l0,.17c0,.63-.09,1-.37,1l-.21-.16-.19,0-.3.43L30.32,43a.49.49,0,0,1-.63-.46q-.59-3.24,3.08-15.08,3.49-11.81,2.76-15.95c.65-1.86,1.4-2.86,2.26-3l3,.21A137,137,0,0,1,57.73,4.39Z"/><path class="cls-5" d="M82.39,0c0,.19.5.36,1.41.5.07.44.43.69,1,.74l0,.19-.15.2,0,.19c.47-.08.73,0,.77.24l-.14.2c.57-.1,1.4.37,2.48,1.43q.12.72-18,5.79c-1.22.22-1.83,1.32-1.84,3.3-.15,0-.34,1-.58,2.9l.17,0,4.63-1.18c.68.62,1.16.9,1.45.85l.16.91.46.47,0,.18-.53.09,0,.19.17,0,1.06-.38,1.15.17,0,.19-.16.2,0,.19c.75,0,1.14.14,1.18.34q-1.86,2.13-12,6.05-3.9,12.72-4.69,14.44c-1,.17-1.42.43-1.36.79l-.17,0-.62-.26.16-.21L58.6,38l-.36.06q.09.54-.27.6c-.23-.58-.59-.82-1.07-.73l0,.17c0,.62-.1,1-.37,1l-.21-.16-.19,0-.3.43L55,38.6a.49.49,0,0,1-.64-.46q-.57-3.24,3.09-15.08,3.49-11.79,2.76-15.94c.65-1.86,1.4-2.87,2.25-3l3,.21A137.74,137.74,0,0,1,82.39,0Z"/><circle class="cls-6" cx="132.02" cy="63.18" r="22.74"/><path d="M58.89,69.78H59l9.53-29.37H78l8.92,29.37H87l8.57-29.37h12.3L93.33,85.88H81.27l-8-26.35h-.12L64.26,85.88h-12L38.69,40.41H51Z"/><path d="M181.32,67.25l14.3,18.63H180.9L169.75,68.39h-.13V85.88H157.8V40.41h17.67a18.72,18.72,0,0,1,11.28,3.41q4.53,3.34,4.53,10.64a14.2,14.2,0,0,1-2.57,8.36,10.9,10.9,0,0,1-7.39,4.49Zm-11.7-6.45h1.15a3.05,3.05,0,0,0,.6.06h.55a11.83,11.83,0,0,0,4.85-1.24q2.21-1.11,2.2-4.43t-2.2-4.48a11.69,11.69,0,0,0-4.85-1.25h-2.3Z"/><path d="M210.63,75.87H224.8v10h-26V40.41h11.82Z"/><path d="M228.66,40.41h16.77a22.79,22.79,0,0,1,16.31,6.64,21.6,21.6,0,0,1,6.79,16.16,21.46,21.46,0,0,1-6.82,16.13,22.69,22.69,0,0,1-16.28,6.54H228.66Zm11.82,35.46h2.66a14.12,14.12,0,0,0,9.19-3q3.9-3,3.89-9.7,0-6.1-3.61-9.43a13.28,13.28,0,0,0-9.35-3.33h-2.78Z"/><path class="cls-7" d="M58.89,69.78H59l9.53-29.37H78l8.92,29.37H87l8.57-29.37h12.3L93.33,85.88H81.27l-8-26.35h-.12L64.26,85.88h-12L38.69,40.41H51Z"/><path class="cls-7" d="M181.32,67.25l14.3,18.63H180.9L169.75,68.39h-.13V85.88H157.8V40.41h17.67a18.72,18.72,0,0,1,11.28,3.41q4.53,3.34,4.53,10.64a14.2,14.2,0,0,1-2.57,8.36,10.9,10.9,0,0,1-7.39,4.49Zm-11.7-6.45h1.15a3.05,3.05,0,0,0,.6.06h.55a11.83,11.83,0,0,0,4.85-1.24q2.21-1.11,2.2-4.43t-2.2-4.48a11.69,11.69,0,0,0-4.85-1.25h-2.3Z"/><path class="cls-7" d="M210.63,75.87H224.8v10h-26V40.41h11.82Z"/><path class="cls-7" d="M228.66,40.41h16.77a22.79,22.79,0,0,1,16.31,6.64,21.6,21.6,0,0,1,6.79,16.16,21.46,21.46,0,0,1-6.82,16.13,22.69,22.69,0,0,1-16.28,6.54H228.66Zm11.82,35.46h2.66a14.12,14.12,0,0,0,9.19-3q3.9-3,3.89-9.7,0-6.1-3.61-9.43a13.28,13.28,0,0,0-9.35-3.33h-2.78Z"/><g class="cls-8"><path class="cls-9" d="M135.57,55.12l-.24,1.05c.57.35,1.11.71,1.67,1,.23.13.64.33.72.25,1-1,1.9,0,2.84.13a8.94,8.94,0,0,0,1,.06c1.38,0,1.46,0,1.45-1.5a5.81,5.81,0,0,0-1.17-.08,1.25,1.25,0,0,1-1.51-1c-.08-.23-.41-.39-.62-.58l-.25.23.26.75-.19.26a3.21,3.21,0,0,1-.72-.51c-.72-.88-1.39-1.8-2.08-2.71l-.4.32,1.39,1.53-.48.73c-1.42-2.4-2.51-3.11-4.91-1.27a1.58,1.58,0,0,1-2.1,0,1.05,1.05,0,0,1-.32-1c.27-.48.27-1.4,1.29-1.11a12.87,12.87,0,0,0,1.38.25l-.18-1.51,1-.21v-.13l-.95-.13,1.07-2.68.23.07.38,2.6,2-.52c0-.45.59-1-.17-1.53a2.32,2.32,0,0,1,.53-1.16,18.42,18.42,0,0,1,2.11-1.84c.54-.4,1.13-.75,1.86-.21a15.18,15.18,0,0,0,1.85,1.08c.16-.1.31-.2.46-.28a5.81,5.81,0,0,0,1.37-.75c.16-.15,0-.66-.08-1.11.76.48,1.59.94,2.33,1.51a22.34,22.34,0,0,1,8.32,12.56,5.36,5.36,0,0,1-.1,1.86c-.16,1.28-.37,2.55-.56,3.82-1-.57-1-1.78-1.26-2.82a2.17,2.17,0,0,0-2.36-1.47,4.6,4.6,0,0,1-1.88-.12,7.93,7.93,0,0,1-1.58-.87c.22,1.29.54,1.48,1.76,1.25a1.34,1.34,0,0,1,.94.44.85.85,0,0,1,.12.79C149,62.23,147.55,63,146,63.56c-.14,0-.3.06-.45.1s0,.07-.1.42l2.2-.23a4.9,4.9,0,0,1-1.81,2.88,17.1,17.1,0,0,1-1.33,1.09,2.38,2.38,0,0,0-1.22,2.78c.1.44-.44,1.24-.9,1.55a5,5,0,0,0-1.86,1.53,6.58,6.58,0,0,1-3.3,2,8.46,8.46,0,0,1-2.75.06c-.48-1.37-.93-2.54-1.28-3.73a1.73,1.73,0,0,1,.08-1.31,2.17,2.17,0,0,0-.06-3.06c-.44-.57-.69-1-.25-1.73.11-.16.07-.65,0-.7A18.26,18.26,0,0,0,130.14,64c-1-.26-2.06-.28-3.07-.48a1.73,1.73,0,0,1-.8-.61c-2.07-2.24-1.58-6.12,1.69-7,.56-.16.92-.9,1.47-1.15,1.44-.65,2.95,0,4.43,0A8,8,0,0,1,135.57,55.12Zm4.38-7c-1.13-.52-.34-1.31-.28-2-.4.58-1.36.73-1,1.86.11.36-.91,1.05-1.4,1.57C138.76,50.34,139.15,48.87,140,48.07Zm4.51,6.36-1.39-1.65-.4.79-1.12-.78L141,54.43Zm-1.78,4.39c.9,1.44,1,3.36,2.59,4.37C144.6,61.62,144.16,59.92,142.68,58.82Z"/><path class="cls-9" d="M110.4,56.12a34.63,34.63,0,0,1,1.12,5.82,5.78,5.78,0,0,0,1.38,3.37,17.93,17.93,0,0,1,1.28,1.89c.15.29.11,1-.09,1.08-.82.5-.8,1.3-1,2a4.59,4.59,0,0,1-.84,1.22l-.36-.2a3.52,3.52,0,0,1-.26,1.7A22.41,22.41,0,0,1,110.4,56.12Z"/><path class="cls-9" d="M119.07,46.74c-.21.25-.48.56-.73.89s-.34.63-1.08.26-1.75.47-2.45.7c.45-1.22,4.65-4.66,6.87-5.35l-.76.82,6.36-1.73,0-.11h-3l0-.45,6.27-1.31.13.26c-1.52,1-3,2-4.59,2.85a6.57,6.57,0,0,1-2.26.37c-.53.07-.88,0-1.13.79a4.87,4.87,0,0,1-1.92,2.15C120.42,47.14,119.63,46.8,119.07,46.74Z"/><path class="cls-9" d="M138.14,85.18a23.08,23.08,0,0,1-12-.11c-.26-.07-.62-.53-.57-.72s.48-.85.71-.83c2.09.19,4.18-.69,6.28.09a5,5,0,0,0,2.05,0A4.44,4.44,0,0,1,138.14,85.18Z"/><path class="cls-9" d="M131.67,42.21l-1.84-.61,2.08-1.16.18.34-.85.58,4.21,1.16-3.27,2.09a5.48,5.48,0,0,1-1.46.83c-1,.25-2,.31-3,.49-1.15.21-2.29.46-3.43.69-.15-.76.55-1.57,1.82-2.12,1.5-.66,2.95-1.44,4.44-2.13A4.44,4.44,0,0,1,131.67,42.21Z"/><path class="cls-9" d="M145.84,71.05a4.77,4.77,0,0,1-2,3,.61.61,0,0,1-.6,0,.64.64,0,0,1-.1-.6,16.1,16.1,0,0,1,1.56-1.64A8.45,8.45,0,0,1,145.84,71.05Z"/></g><g class="cls-8"><path class="cls-10" d="M135.57,55.12l-.24,1.05c.57.35,1.11.71,1.67,1,.23.13.64.33.72.25,1-1,1.9,0,2.84.13a8.94,8.94,0,0,0,1,.06c1.38,0,1.46,0,1.45-1.5a5.81,5.81,0,0,0-1.17-.08,1.25,1.25,0,0,1-1.51-1c-.08-.23-.41-.39-.62-.58l-.25.23.26.75-.19.26a3.21,3.21,0,0,1-.72-.51c-.72-.88-1.39-1.8-2.08-2.71l-.4.32,1.39,1.53-.48.73c-1.42-2.4-2.51-3.11-4.91-1.27a1.58,1.58,0,0,1-2.1,0,1.05,1.05,0,0,1-.32-1c.27-.48.27-1.4,1.29-1.11a12.87,12.87,0,0,0,1.38.25l-.18-1.51,1-.21v-.13l-.95-.13,1.07-2.68.23.07.38,2.6,2-.52c0-.45.59-1-.17-1.53a2.32,2.32,0,0,1,.53-1.16,18.42,18.42,0,0,1,2.11-1.84c.54-.4,1.13-.75,1.86-.21a15.18,15.18,0,0,0,1.85,1.08c.16-.1.31-.2.46-.28a5.81,5.81,0,0,0,1.37-.75c.16-.15,0-.66-.08-1.11.76.48,1.59.94,2.33,1.51a22.34,22.34,0,0,1,8.32,12.56,5.36,5.36,0,0,1-.1,1.86c-.16,1.28-.37,2.55-.56,3.82-1-.57-1-1.78-1.26-2.82a2.17,2.17,0,0,0-2.36-1.47,4.6,4.6,0,0,1-1.88-.12,7.93,7.93,0,0,1-1.58-.87c.22,1.29.54,1.48,1.76,1.25a1.34,1.34,0,0,1,.94.44.85.85,0,0,1,.12.79C149,62.23,147.55,63,146,63.56c-.14,0-.3.06-.45.1s0,.07-.1.42l2.2-.23a4.9,4.9,0,0,1-1.81,2.88,17.1,17.1,0,0,1-1.33,1.09,2.38,2.38,0,0,0-1.22,2.78c.1.44-.44,1.24-.9,1.55a5,5,0,0,0-1.86,1.53,6.58,6.58,0,0,1-3.3,2,8.46,8.46,0,0,1-2.75.06c-.48-1.37-.93-2.54-1.28-3.73a1.73,1.73,0,0,1,.08-1.31,2.17,2.17,0,0,0-.06-3.06c-.44-.57-.69-1-.25-1.73.11-.16.07-.65,0-.7A18.26,18.26,0,0,0,130.14,64c-1-.26-2.06-.28-3.07-.48a1.73,1.73,0,0,1-.8-.61c-2.07-2.24-1.58-6.12,1.69-7,.56-.16.92-.9,1.47-1.15,1.44-.65,2.95,0,4.43,0A8,8,0,0,1,135.57,55.12Zm4.38-7c-1.13-.52-.34-1.31-.28-2-.4.58-1.36.73-1,1.86.11.36-.91,1.05-1.4,1.57C138.76,50.34,139.15,48.87,140,48.07Zm4.51,6.36-1.39-1.65-.4.79-1.12-.78L141,54.43Zm-1.78,4.39c.9,1.44,1,3.36,2.59,4.37C144.6,61.62,144.16,59.92,142.68,58.82Z"/><path class="cls-10" d="M110.4,56.12a34.63,34.63,0,0,1,1.12,5.82,5.78,5.78,0,0,0,1.38,3.37,17.93,17.93,0,0,1,1.28,1.89c.15.29.11,1-.09,1.08-.82.5-.8,1.3-1,2a4.59,4.59,0,0,1-.84,1.22l-.36-.2a3.52,3.52,0,0,1-.26,1.7A22.41,22.41,0,0,1,110.4,56.12Z"/><path class="cls-10" d="M119.07,46.74c-.21.25-.48.56-.73.89s-.34.63-1.08.26-1.75.47-2.45.7c.45-1.22,4.65-4.66,6.87-5.35l-.76.82,6.36-1.73,0-.11h-3l0-.45,6.27-1.31.13.26c-1.52,1-3,2-4.59,2.85a6.57,6.57,0,0,1-2.26.37c-.53.07-.88,0-1.13.79a4.87,4.87,0,0,1-1.92,2.15C120.42,47.14,119.63,46.8,119.07,46.74Z"/><path class="cls-10" d="M138.14,85.18a23.08,23.08,0,0,1-12-.11c-.26-.07-.62-.53-.57-.72s.48-.85.71-.83c2.09.19,4.18-.69,6.28.09a5,5,0,0,0,2.05,0A4.44,4.44,0,0,1,138.14,85.18Z"/><path class="cls-10" d="M131.67,42.21l-1.84-.61,2.08-1.16.18.34-.85.58,4.21,1.16-3.27,2.09a5.48,5.48,0,0,1-1.46.83c-1,.25-2,.31-3,.49-1.15.21-2.29.46-3.43.69-.15-.76.55-1.57,1.82-2.12,1.5-.66,2.95-1.44,4.44-2.13A4.44,4.44,0,0,1,131.67,42.21Z"/><path class="cls-10" d="M145.84,71.05a4.77,4.77,0,0,1-2,3,.61.61,0,0,1-.6,0,.64.64,0,0,1-.1-.6,16.1,16.1,0,0,1,1.56-1.64A8.45,8.45,0,0,1,145.84,71.05Z"/></g></g></g></svg>