<svg xmlns="http://www.w3.org/2000/svg" viewBox="0 0 610.8 195.04"><defs><style>.cls-1{fill:#cb2d6f;}</style></defs><g id="Calque_2" data-name="Calque 2"><g id="Calque_3" data-name="Calque 3"><path class="cls-1" d="M64.07,167.78c-15.11,0-27.21-4.51-36-13.4S15,133.37,15,118.17V58.62a15,15,0,0,1,15-15h7.63c16.15,0,26.58,11.23,26.58,28.62v44.7a36,36,0,0,0,.23,4.28c.57,0,1.25.07,2.08.07h4.77A37.29,37.29,0,0,0,85.17,119a15,15,0,0,1,20.61,13.91v6.41c0,9-3.54,16.73-10,21.83-5.72,4.54-13.52,6.66-24.52,6.66Z"/><path d="M37.63,58.62q11.58,0,11.58,13.62v44.7q0,10.91,3.55,15.13t13.76,4.22h4.77a51.68,51.68,0,0,0,19.49-3.41v6.41q0,6.68-4.3,10.08t-15.19,3.41H64.07q-16.5,0-25.28-8.93T30,118.17V58.62h7.63m0-30H30a30,30,0,0,0-30,30v59.55c0,24,9.47,38.67,17.42,46.74s22.64,17.87,46.65,17.87h7.22c14.37,0,25.44-3.24,33.84-9.91,10.09-8,15.65-19.93,15.65-33.58v-6.41a30,30,0,0,0-41.22-27.82l-.35.13V72.24c0-11.83-3.37-21.81-10-29.65-7.67-9-18.87-14-31.55-14Z"/><path class="cls-1" d="M98,107.68a15,15,0,0,1-15-15v-.81A15,15,0,0,1,87.68,81h0a7.15,7.15,0,0,0,1-1.78l0-.07a25.08,25.08,0,0,1-5.29-15.34,24.34,24.34,0,0,1,7.7-18,26.19,26.19,0,0,1,38.34,2.7c4.19,5.38,6.31,12.35,6.31,20.75a40.37,40.37,0,0,1-8.89,25.58c-8.4,10.62-18.34,12.85-25.19,12.85Z"/><path d="M109,53.71a10.29,10.29,0,0,1,8.58,4q3.13,4,3.14,11.52a25.56,25.56,0,0,1-5.66,16.28q-5.66,7.16-13.42,7.15H98v-.81a20.3,20.3,0,0,0,4.43-6.68,19.07,19.07,0,0,0,1.84-7.36,8.3,8.3,0,0,0-2.18-6.13,11,11,0,0,1-3.68-7.91,9.52,9.52,0,0,1,3.06-7.15A10.56,10.56,0,0,1,109,53.71m0-30A40.72,40.72,0,0,0,80.75,35a39.7,39.7,0,0,0-9.54,43.41A30,30,0,0,0,68,91.87v.81a30,30,0,0,0,30,30h3.68c14.37,0,27.5-6.58,36.95-18.54a55.76,55.76,0,0,0,12.13-34.89c0-11.82-3.19-21.89-9.47-30A40.06,40.06,0,0,0,109,23.71Z"/><path class="cls-1" d="M169.81,167.64c-15.56,0-27.92-4.68-36.73-13.9-8.64-9-13-21.64-13-37.48V99A199,199,0,0,1,122,70.54c1.24-8.93,4.5-15.73,9.68-20.2a27,27,0,0,1,10.91-5.66A15,15,0,0,1,144.32,41,81.33,81.33,0,0,1,157,25.47l.14-.12a55.72,55.72,0,0,1,9.05-6.79A27.55,27.55,0,0,1,180,15c13.33,0,22.63,9,22.63,22a22.92,22.92,0,0,1-1,6.76,15,15,0,0,1,13.29,14.91v6.27c0,8.24-3.74,17.48-13.43,22A15,15,0,0,1,205,96.5v6.68a23,23,0,0,1-6.59,16.45,15.7,15.7,0,0,1,1.81-.11,15,15,0,0,1,15,15.31l-.14,6.54c-.2,9-4.2,16.47-11.25,21.06-5.54,3.6-13,5.21-24.05,5.21Z"/><path d="M180,30q7.64,0,7.63,7,0,6-9,9.67A39.91,39.91,0,0,1,163,49.9h-6.13v-.69a67.36,67.36,0,0,1,10.22-12.67,40.87,40.87,0,0,1,6.54-5A12.55,12.55,0,0,1,180,30m19.9,28.62v6.27q0,9.81-12.54,9.81h-32A157,157,0,0,0,154,96.5h36v6.68q0,8.58-11.31,8.58H154v5.45q0,11.73,4.23,15.54t15.53,3.81h6a94,94,0,0,0,20.44-2l-.14,6.54q-.13,6-4.43,8.79t-15.87,2.79h-9.95q-17,0-25.89-9.26t-8.86-27.12V99a182.56,182.56,0,0,1,1.77-26.3q1.09-7.91,4.64-11t9.67-3.06h48.79M180,0a42.26,42.26,0,0,0-21.35,5.56,69.43,69.43,0,0,0-11.57,8.6l-.27.24A95.27,95.27,0,0,0,131.9,32.58,41.61,41.61,0,0,0,121.83,39c-8,6.91-12.93,16.81-14.7,29.42A214,214,0,0,0,105.06,99v17.31c0,19.83,5.78,35.93,17.18,47.85,8.07,8.45,22.89,18.53,47.57,18.53h9.95c14,0,24.22-2.43,32.24-7.65,11.15-7.25,17.74-19.37,18.06-33.24v-.06l.13-6.54a30,30,0,0,0-11-23.85l0,0a40.83,40.83,0,0,0,.81-8.1V96.5a30.37,30.37,0,0,0-.35-4.6,38.79,38.79,0,0,0,10.3-27V58.62a30,30,0,0,0-12.35-24.26A36.13,36.13,0,0,0,206,9.56C201.17,5.2,192.78,0,180,0Z"/><path class="cls-1" d="M289.46,180a108,108,0,0,1-27.54-4.12,114.92,114.92,0,0,1-23.59-8.84A55,55,0,0,1,224,161.16a64.47,64.47,0,0,1-14.52-11.81,57.46,57.46,0,0,1-11.42-19,67.14,67.14,0,0,1-4.16-23.74c0-18.16,5-33.42,15-45.36C219.53,48.45,234.81,42,254.3,42c15.49,0,29,5.81,40.22,17.25s16.75,26.37,16.75,44.63c0,11.84-2.54,22.5-7.57,31.78a15,15,0,0,1,10.84,14.41v6C314.54,170.4,304.46,180,289.46,180ZM252,88.47c-3.06,0-4.35.9-5.56,2.47-2.18,2.83-3.28,7.17-3.28,12.92,0,10,2.18,14.18,3.48,15.79.76.93,2.31,2.87,7.68,2.87,1.52,0,2.63-.18,4.24-2.49,2.33-3.36,3.52-8,3.52-13.85C262.06,88.47,256.47,88.47,252,88.47Z"/><path d="M254.3,57q17,0,29.5,12.74t12.47,34.14q0,16.76-8.24,28.68t-18.2,14q10.91,3.54,29.71,3.54v6q0,9-10.08,9a92.41,92.41,0,0,1-23.65-3.61,96.9,96.9,0,0,1-22.14-8.51,38.83,38.83,0,0,1-12.06-4.71,48.81,48.81,0,0,1-11.11-9.06,42.46,42.46,0,0,1-8.38-14.1,52.16,52.16,0,0,1-3.2-18.47q0-21.93,11.52-35.77T254.3,57m0,80.54q10.35,0,16.56-8.93t6.2-22.41q0-32.72-25.08-32.71-11,0-17.44,8.31t-6.4,22.08q0,16.76,6.81,25.21t19.35,8.45M254.3,27c-30.09,0-47.56,13.4-56.92,24.64-12.25,14.71-18.46,33.2-18.46,55a82.13,82.13,0,0,0,5.12,29,72.34,72.34,0,0,0,14.47,23.94,78.74,78.74,0,0,0,17.93,14.54,70,70,0,0,0,16.47,7.07A133.13,133.13,0,0,0,258,190.4c11.61,3.13,21.89,4.64,31.44,4.64,23.22,0,40.08-16.4,40.08-39v-6a29.91,29.91,0,0,0-7.32-19.64,85,85,0,0,0,4-26.55c0-22-7.27-41.06-21-55.12C291.31,34.51,273.7,27,254.3,27Zm-8.05,71.76Z"/><path class="cls-1" d="M347.37,168.6c-15.58,0-28.82-5.52-38.3-16-9.22-10.17-13.9-24-13.9-41.15V58.62a15,15,0,0,1,15-15h7.22a25.3,25.3,0,0,1,19.86,9.59c4.53,5.55,6.72,12.93,6.72,22.58v34.47c0,7.4,1.43,9.95,1.71,10.39a9.22,9.22,0,0,0,3.6.5,8.28,8.28,0,0,0,2.1-.21c.4-.72,1.57-3.39,1.57-10V58.62a15,15,0,0,1,15-15H375a25.18,25.18,0,0,1,20.56,10.11c4.09,5.44,6.16,12.67,6.16,21.51v34.61c0,17.65-4.56,31.85-13.55,42.2C378.66,163,364.93,168.6,347.37,168.6Z"/><path d="M375,58.62a10.18,10.18,0,0,1,8.59,4.15q3.13,4.16,3.13,12.47v34.61q0,21-9.88,32.37t-29.5,11.38q-17.17,0-27.19-11t-10-31.07V58.62h7.22a10.25,10.25,0,0,1,8.24,4.08Q329,66.8,329,75.79v34.47q0,13.23,4.84,19.56t15.47,6.33q9.68,0,14.17-6.26t4.5-18.95V58.62H375m0-30H368a29.93,29.93,0,0,0-23.08,10.83,39.74,39.74,0,0,0-27.48-10.83h-7.22a30,30,0,0,0-30,30v52.87c0,21,6,38.21,17.8,51.23,12.39,13.66,29.47,20.88,49.4,20.88,27.52,0,43.55-11.81,52.15-21.71,11.44-13.17,17.23-30.67,17.23-52V75.24c0-12.17-3.09-22.44-9.17-30.52A40.39,40.39,0,0,0,375,28.62Z"/><path class="cls-1" d="M414.28,167a25.84,25.84,0,0,1-18.41-7.63c-3.6-3.53-7.9-9.83-7.9-19.77V58.62a15,15,0,0,1,15-15h8.45a24.85,24.85,0,0,1,17,6.7,24.32,24.32,0,0,1,8,18.24V152a15,15,0,0,1-15,15Z"/><path d="M411.42,58.62a10,10,0,0,1,6.88,2.79,9.25,9.25,0,0,1,3.06,7.15V152h-7.08a11,11,0,0,1-7.91-3.34q-3.4-3.33-3.4-9.06V58.62h8.45m0-30H403a30,30,0,0,0-30,30v80.94a42.16,42.16,0,0,0,12.41,30.49A41.07,41.07,0,0,0,414.28,182h7.08a30,30,0,0,0,30-30V68.56a39.19,39.19,0,0,0-12.85-29.32,40.25,40.25,0,0,0-27.09-10.62Z"/><path class="cls-1" d="M450.93,167a26,26,0,0,1-18.29-7.45c-3.66-3.51-8-10-8-20.9V62.3a15,15,0,0,1,9.83-14.09,90.84,90.84,0,0,1,14.22-3.59,85.16,85.16,0,0,1,15.21-1.68h10.49c13,0,23.92,3.84,32.45,11.41C513,59.88,520.44,70,520.44,87c0,13.69-4.66,25.45-13.48,34S487,133.85,474,133.85h-.67V152a15,15,0,0,1-15,15Z"/><path d="M474.37,57.94q13.9,0,22.48,7.63T505.44,87q0,14.58-8.93,23.24T474,118.85q-9.81,0-15.67-3.14V152h-7.36a11.05,11.05,0,0,1-7.9-3.27q-3.4-3.27-3.41-10.08V62.3a76.94,76.94,0,0,1,11.79-2.93,70.85,70.85,0,0,1,12.47-1.43h10.49M471.51,103q7.08,0,10.9-3.81t3.82-10.63q0-7.91-3.41-11.38t-10.77-3.48h-6A70.9,70.9,0,0,0,458.29,75v26.44A47.34,47.34,0,0,0,471.51,103m2.86-75.1H463.88a99.68,99.68,0,0,0-18,1.93,103,103,0,0,0-16.63,4.26A30,30,0,0,0,409.62,62.3v76.31c0,16.2,6.87,26.19,12.63,31.72A41.27,41.27,0,0,0,450.93,182h7.36a30,30,0,0,0,30-30v-4.62a59.78,59.78,0,0,0,29.11-15.61c11.8-11.44,18-26.92,18-44.77,0-22.51-10.14-36.25-18.65-43.81-11.2-10-25.87-15.21-42.42-15.21Z"/><path class="cls-1" d="M550.41,167.64c-15.56,0-27.92-4.68-36.74-13.9-8.63-9-13-21.64-13-37.48V99a197.63,197.63,0,0,1,1.92-28.42c1.24-8.92,4.5-15.72,9.67-20.19,3.54-3.07,9.8-6.72,19.49-6.72h48.78a15,15,0,0,1,15,15v6.27c0,8.24-3.74,17.48-13.42,22a15,15,0,0,1,3.48,9.61v6.68a23.05,23.05,0,0,1-6.6,16.45,15.87,15.87,0,0,1,1.82-.11,15,15,0,0,1,15,15.31l-.13,6.54c-.21,9-4.2,16.47-11.25,21.06-5.55,3.6-13,5.21-24,5.21Z"/><path d="M580.52,58.62v6.27q0,9.81-12.53,9.81H536a157.13,157.13,0,0,0-1.36,21.8h36v6.68q0,8.58-11.31,8.58H534.6v5.45q0,11.73,4.22,15.54t15.54,3.81h6a94.07,94.07,0,0,0,20.44-2l-.14,6.54q-.13,6-4.43,8.79t-15.87,2.79h-10q-17,0-25.89-9.26t-8.86-27.12V99a182.56,182.56,0,0,1,1.77-26.3q1.1-7.91,4.63-11t9.68-3.06h48.78m0-30H531.74c-14.31,0-23.84,5.65-29.31,10.38-8,6.91-12.94,16.81-14.7,29.42A214,214,0,0,0,485.66,99v17.31c0,19.83,5.78,35.93,17.17,47.85,8.08,8.45,22.9,18.53,47.58,18.53h10c14,0,24.22-2.43,32.23-7.65,11.16-7.25,17.74-19.37,18.06-33.24v-.06l.14-6.54a30,30,0,0,0-11-23.85l0,0a40.1,40.1,0,0,0,.82-8.1V96.5a30.37,30.37,0,0,0-.35-4.6,38.78,38.78,0,0,0,10.29-27V58.62a30,30,0,0,0-30-30Z"/><path class="cls-1" d="M90.78,139.29q0,6.68-4.3,10.08t-15.19,3.41H64.07q-16.5,0-25.28-8.93T30,118.17V58.62h7.63q11.58,0,11.58,13.62v44.7q0,10.91,3.55,15.13t13.76,4.22h4.77a51.68,51.68,0,0,0,19.49-3.41Z"/><path class="cls-1" d="M120.76,69.25a25.56,25.56,0,0,1-5.66,16.28q-5.66,7.16-13.42,7.15H98v-.81a20.3,20.3,0,0,0,4.43-6.68,19.07,19.07,0,0,0,1.84-7.36,8.3,8.3,0,0,0-2.18-6.13,11,11,0,0,1-3.68-7.91,9.52,9.52,0,0,1,3.06-7.15A10.56,10.56,0,0,1,109,53.71a10.29,10.29,0,0,1,8.58,4Q120.76,61.75,120.76,69.25Z"/><path class="cls-1" d="M200.2,134.52l-.14,6.54q-.13,6-4.43,8.79t-15.87,2.79h-9.95q-17,0-25.89-9.26t-8.86-27.12V99a182.56,182.56,0,0,1,1.77-26.3q1.09-7.91,4.64-11t9.67-3.06h48.79v6.27q0,9.81-12.54,9.81h-32A157,157,0,0,0,154,96.5h36v6.68q0,8.58-11.31,8.58H154v5.45q0,11.73,4.23,15.54t15.53,3.81h6A94,94,0,0,0,200.2,134.52ZM187.66,37q0,6-9,9.67A39.91,39.91,0,0,1,163,49.9h-6.13v-.69a67.36,67.36,0,0,1,10.22-12.67,40.87,40.87,0,0,1,6.54-5A12.55,12.55,0,0,1,180,30Q187.67,30,187.66,37Z"/><path class="cls-1" d="M243.67,152.92a38.83,38.83,0,0,1-12.06-4.71,48.81,48.81,0,0,1-11.11-9.06,42.46,42.46,0,0,1-8.38-14.1,52.16,52.16,0,0,1-3.2-18.47q0-21.93,11.52-35.77T254.3,57q17,0,29.5,12.74t12.47,34.14q0,16.76-8.24,28.68t-18.2,14q10.91,3.54,29.71,3.54v6q0,9-10.08,9a92.41,92.41,0,0,1-23.65-3.61A96.9,96.9,0,0,1,243.67,152.92Zm33.39-46.74q0-32.72-25.08-32.71-11,0-17.44,8.31t-6.4,22.08q0,16.76,6.81,25.21t19.35,8.45q10.35,0,16.56-8.93T277.06,106.18Z"/><path class="cls-1" d="M386.75,109.85q0,21-9.88,32.37t-29.5,11.38q-17.17,0-27.19-11t-10-31.07V58.62h7.22a10.25,10.25,0,0,1,8.24,4.08Q329,66.8,329,75.79v34.47q0,13.23,4.84,19.56t15.47,6.33q9.68,0,14.17-6.26t4.5-18.95V58.62H375a10.18,10.18,0,0,1,8.59,4.15q3.13,4.16,3.13,12.47Z"/><path class="cls-1" d="M421.36,152h-7.08a11,11,0,0,1-7.91-3.34q-3.4-3.33-3.4-9.06V58.62h8.45a10,10,0,0,1,6.88,2.79,9.25,9.25,0,0,1,3.06,7.15Z"/><path class="cls-1" d="M505.44,87q0,14.58-8.93,23.24T474,118.85q-9.81,0-15.67-3.14V152h-7.36a11.05,11.05,0,0,1-7.9-3.27q-3.4-3.27-3.41-10.08V62.3a76.94,76.94,0,0,1,11.79-2.93,70.85,70.85,0,0,1,12.47-1.43h10.49q13.9,0,22.48,7.63T505.44,87ZM486.23,88.6q0-7.91-3.41-11.38t-10.77-3.48h-6A70.9,70.9,0,0,0,458.29,75v26.44A47.34,47.34,0,0,0,471.51,103q7.08,0,10.9-3.81T486.23,88.6Z"/><path class="cls-1" d="M580.8,134.52l-.14,6.54q-.13,6-4.43,8.79t-15.87,2.79h-10q-17,0-25.89-9.26t-8.86-27.12V99a182.56,182.56,0,0,1,1.77-26.3q1.1-7.91,4.63-11t9.68-3.06h48.78v6.27q0,9.81-12.53,9.81H536a157.13,157.13,0,0,0-1.36,21.8h36v6.68q0,8.58-11.31,8.58H534.6v5.45q0,11.73,4.22,15.54t15.54,3.81h6A94.07,94.07,0,0,0,580.8,134.52Z"/></g></g></svg>